<mxfile host="app.diagrams.net" modified="2024-01-05T10:39:05.426Z" agent="Mozilla/5.0 (Windows NT 10.0; Win64; x64) AppleWebKit/537.36 (KHTML, like Gecko) Chrome/120.0.0.0 Safari/537.36" etag="Z_xPEgocF4Ra9yxIQ72m" version="22.1.16" type="github">
  <diagram name="Page-1" id="XYTp5wBIFLbRx_2zd7YA">
    <mxGraphModel dx="794" dy="1547" grid="1" gridSize="10" guides="1" tooltips="1" connect="1" arrows="1" fold="1" page="1" pageScale="1" pageWidth="827" pageHeight="1169" math="0" shadow="0">
      <root>
        <mxCell id="0" />
        <mxCell id="1" parent="0" />
        <mxCell id="2" value="Load Task Data" style="whiteSpace=wrap;strokeWidth=2;" parent="1" vertex="1">
          <mxGeometry x="40" y="-270" width="127" height="34" as="geometry" />
        </mxCell>
        <mxCell id="3" value="Downsampling to TR resolution + Timeshift" style="whiteSpace=wrap;strokeWidth=2;" parent="1" vertex="1">
          <mxGeometry x="40" y="-130" width="130" height="50" as="geometry" />
        </mxCell>
        <mxCell id="4" value="Load fMRI volume" style="whiteSpace=wrap;strokeWidth=2;" parent="1" vertex="1">
          <mxGeometry x="35.5" y="-200" width="136" height="34" as="geometry" />
        </mxCell>
        <mxCell id="5" value="Noise simulation" style="whiteSpace=wrap;strokeWidth=2;" parent="1" vertex="1">
          <mxGeometry x="44" y="50" width="133" height="34" as="geometry" />
        </mxCell>
        <mxCell id="6" value="Convolution" style="whiteSpace=wrap;strokeWidth=2;" parent="1" vertex="1">
          <mxGeometry x="60.5" y="140" width="100" height="34" as="geometry" />
        </mxCell>
        <mxCell id="7" value="Downsampling" style="whiteSpace=wrap;strokeWidth=2;" parent="1" vertex="1">
          <mxGeometry x="865" width="117" height="34" as="geometry" />
        </mxCell>
        <mxCell id="8" value="Simulation result" style="whiteSpace=wrap;strokeWidth=2;" parent="1" vertex="1">
          <mxGeometry x="1032" width="137" height="34" as="geometry" />
        </mxCell>
        <mxCell id="9" value="" style="curved=1;startArrow=none;endArrow=block;exitX=0.5;exitY=1;exitDx=0;exitDy=0;" parent="1" edge="1">
          <mxGeometry relative="1" as="geometry">
            <Array as="points">
              <mxPoint x="460" y="-87" />
            </Array>
            <mxPoint x="573.5" y="-143" as="sourcePoint" />
            <mxPoint x="510" y="-67" as="targetPoint" />
          </mxGeometry>
        </mxCell>
        <mxCell id="10" value="" style="curved=1;startArrow=none;endArrow=block;exitX=0;exitY=0.75;entryX=-0.0009191176470588235;entryY=0.4950980579151827;exitDx=0;exitDy=0;" parent="1" source="3" target="4" edge="1">
          <mxGeometry relative="1" as="geometry">
            <Array as="points" />
          </mxGeometry>
        </mxCell>
        <mxCell id="11" value="" style="curved=1;startArrow=none;endArrow=block;exitX=0.9979319852941176;exitY=0.4950980579151827;entryX=-0.0021146616541353382;entryY=0.4950980579151827;" parent="1" source="4" target="5" edge="1">
          <mxGeometry relative="1" as="geometry">
            <Array as="points" />
          </mxGeometry>
        </mxCell>
        <mxCell id="12" value="" style="curved=1;startArrow=none;endArrow=block;exitX=0.9964755639097744;exitY=0.4950980579151827;entryX=-0.0046875;entryY=0.4950980579151827;" parent="1" source="5" target="6" edge="1">
          <mxGeometry relative="1" as="geometry">
            <Array as="points" />
          </mxGeometry>
        </mxCell>
        <mxCell id="13" value="" style="curved=1;startArrow=none;endArrow=block;exitX=0.9955208587646485;exitY=0.4950980579151827;entryX=-0.0038283258421808225;entryY=0.4950980579151827;" parent="1" source="6" target="7" edge="1">
          <mxGeometry relative="1" as="geometry">
            <Array as="points" />
          </mxGeometry>
        </mxCell>
        <mxCell id="14" value="" style="curved=1;startArrow=none;endArrow=block;exitX=0.9977742382603833;exitY=0.4950980579151827;entryX=-0.0019008330185047901;entryY=0.4950980579151827;" parent="1" source="7" target="8" edge="1">
          <mxGeometry relative="1" as="geometry">
            <Array as="points" />
          </mxGeometry>
        </mxCell>
        <mxCell id="S_NbcH1vPvJNAUQvkaYY-16" value="&lt;ul&gt;&lt;li&gt;Data : array of shape = timepoints by task column(s) (regressors/conditions)&lt;/li&gt;&lt;li&gt;Task time resolution : float indicating time interval in seconds between samples&lt;/li&gt;&lt;li&gt;Run duration : sequence of int/float indicating duration of each run in seconds&lt;/li&gt;&lt;/ul&gt;" style="text;strokeColor=none;fillColor=none;align=left;verticalAlign=top;rounded=0;labelPosition=center;verticalLabelPosition=middle;whiteSpace=wrap;html=1;horizontal=1;" vertex="1" parent="1">
          <mxGeometry x="190" y="-292" width="470" height="78" as="geometry" />
        </mxCell>
        <mxCell id="S_NbcH1vPvJNAUQvkaYY-18" value="&lt;ul&gt;&lt;li&gt;Data : array of shape = timepoints by task column(s) (regressors/conditions)&lt;/li&gt;&lt;li&gt;Task time resolution : float indicating time interval in seconds between samples&lt;/li&gt;&lt;li&gt;Run duration : sequence of int/float indicating duration of each run in seconds&lt;/li&gt;&lt;/ul&gt;" style="text;strokeColor=none;fillColor=none;align=left;verticalAlign=top;rounded=0;labelPosition=center;verticalLabelPosition=middle;whiteSpace=wrap;html=1;horizontal=1;" vertex="1" parent="1">
          <mxGeometry x="190" y="-222" width="470" height="78" as="geometry" />
        </mxCell>
      </root>
    </mxGraphModel>
  </diagram>
</mxfile>
